IKResults
version=1
nRows=5
nColumns=44
inDegrees=yes

Units are S.I. units (second, meters, Newtons, ...)
Angles are in degrees.

endheader
time	ground_spine_rot_x	ground_spine_rot_y	ground_spine_rot_z	ground_spine_tx	ground_spine_ty	ground_spine_tz	clav_prot	clav_elev	scapula_abduction	scapula_elevation	scapula_upward_rot	scapula_winging	plane_elv	shoulder_elv	axial_rot	elbow_flexion	pro_sup	clav_prot_l	clav_elev_l	pitch2	roll2	yaw2	aux7jnt_r3	aux7jnt_r1	aux7jnt_r2	aux6jnt_r3	aux6jnt_r1	aux6jnt_r2	aux5jnt_r3	aux5jnt_r1	aux5jnt_r2	aux4jnt_r3	aux4jnt_r1	aux4jnt_r2	aux3jnt_r3	aux3jnt_r1	aux3jnt_r2	pitch1	roll1	yaw1	aux1jnt_r3	aux1jnt_r1	aux1jnt_r2
     14.95000000	     -3.01909042	     -6.32947319	     -2.77119927	     -0.83998917	      1.09289470	      0.93309221	    -20.16904832	     -5.15611501	     13.08932340	    -19.21277944	     11.99798853	     16.27067893	    -68.29593548	     36.84803258	     55.76620997	      0.00000000	     34.32000000	     30.42326055	     -1.16071730	     -0.08382436	      0.23865892	     -0.42463889	     -0.89812100	      1.87335673	     -4.57404250	     -1.05661036	      2.14684284	     -5.32826980	     -1.05661036	      2.95361393	     -5.32826980	     -0.79245777	      2.95361393	     -5.32826980	     -0.52830518	      2.68013566	     -2.28702125	     -0.01506063	      0.05556073	     -0.61694312	     -0.47977805	      1.59169761	     -3.92366180
     14.96000000	     -2.99202994	     -6.19334536	     -2.76989083	     -0.84003649	      1.09286059	      0.93288063	    -20.31507192	     -5.11445942	     12.85632813	    -19.19322757	     11.99833461	     16.38565044	    -69.56719259	     36.93245965	     56.37919654	      0.00000000	     34.32000000	     30.42326055	     -1.16071730	     -0.08441729	      0.23076105	     -0.42825596	     -0.90447384	      1.81136230	     -4.61300416	     -1.06408427	      2.07579802	     -5.37365597	     -1.06408427	      2.85587088	     -5.37365597	     -0.79806320	      2.85587088	     -5.37365597	     -0.53204213	      2.59144274	     -2.30650208	     -0.01941931	      0.06651113	     -0.62158207	     -0.61862991	      1.90540345	     -3.95316478
     14.97000000	     -2.99529022	     -6.19408000	     -2.76422814	     -0.84009138	      1.09287411	      0.93292888	    -20.35496927	     -5.11470685	     12.79686471	    -19.19875825	     11.99844004	     16.42023846	    -69.64382455	     36.93675544	     56.45326932	      0.00000000	     34.32000000	     30.42326055	     -1.16071730	     -0.08441435	      0.23076634	     -0.42806219	     -0.90444236	      1.81140382	     -4.61091693	     -1.06404723	      2.07584559	     -5.37122457	     -1.06404723	      2.85593633	     -5.37122457	     -0.79803542	      2.85593633	     -5.37122457	     -0.53202362	      2.59150213	     -2.30545847	     -0.02012565	      0.06664555	     -0.62142586	     -0.64113163	      1.90925433	     -3.95217131
     14.98000000	     -3.06600951	     -6.42167246	     -2.80231807	     -0.84041801	      1.09286821	      0.93351016	    -20.20606545	     -5.18598901	     13.04485054	    -19.24542430	     11.99738455	     16.31220040	    -68.10540611	     36.78201597	     56.02218121	      0.00000000	     34.32000000	     30.42326055	     -1.16071730	     -0.08145244	      0.24366373	     -0.42291576	     -0.87270757	      1.91264211	     -4.55548158	     -1.02671227	      2.19186338	     -5.30664831	     -1.02671227	      3.01555293	     -5.30664831	     -0.77003420	      3.01555293	     -5.30664831	     -0.51335613	      2.73633966	     -2.27774079	     -0.01534537	      0.05069011	     -0.61679904	     -0.48884895	      1.45216481	     -3.92274549
     14.99000000	     -2.97725104	     -6.14448185	     -2.76278924	     -0.84015344	      1.09278599	      0.93283998	    -20.74890316	     -5.02079436	     12.16872093	    -19.16182156	     11.99692181	     16.73468060	    -69.14507799	     36.77059201	     52.82201302	      0.00000000	     34.32000000	     30.42326055	     -1.16071730	     -0.08374596	      0.23310263	     -0.42862995	     -0.89728108	      1.82974253	     -4.61703262	     -1.05562221	      2.09686152	     -5.37834868	     -1.05562221	      2.88484993	     -5.37834868	     -0.79171666	      2.88484993	     -5.37834868	     -0.52781110	      2.61773858	     -2.30851631	     -0.01862783	      0.06341957	     -0.62117556	     -0.59341635	      1.81683672	     -3.95057943
